# xmcd
#
# Track frame offsets: 
#        150
#        14505
#        27594
#        41545
#        55460
#        70797
#        85052
#        100342
#        115812
#        130242
#        144915
#        158840
#        173462
#        187510
#        198782
#        211572
#        224935
#        238977
#        251270
#        265350
#        279262
#        291530
#        304317
#        317702
#
# Disc length: 4432 seconds
#
# Revision: 0
# Processed by: cddbd v1.5.2PL0 Copyright (c) Steve Scherf et al.
# Submitted via: ExactAudioCopy v1.3
#
DISCID=5d114e18
DTITLE=Kokomo Arnold - Old original  Kokomo blues
DYEAR=1900
DGENRE=Blues
TTITLE0=Milk cow blues
TTITLE1=Old original kokomo blues
TTITLE2=Back to the woods
TTITLE3=Sagefield woman blues
TTITLE4=Old black cat blues
TTITLE5=Sissy man blues
TTITLE6=Front door blues
TTITLE7=Back door blues
TTITLE8=The twelves
TTITLE9=Biscuit roller blues
TTITLE10=Chain gang blues
TTITLE11=How long how long blues
TTITLE12=Bo weavil blues
TTITLE13=Busy bootin'
TTITLE14=Let your money talk
TTITLE15=Policy wheel blues
TTITLE16=Stop, look listen
TTITLE17=Big leg mama
TTITLE18=I'll be up someday
TTITLE19=Red beans and rice
TTITLE20=Set down gal
TTITLE21=Bad luck blues
TTITLE22=Rainy night blues
TTITLE23=Paddlin' madeline blues
EXTD=
EXTT0=
EXTT1=
EXTT2=
EXTT3=
EXTT4=
EXTT5=
EXTT6=
EXTT7=
EXTT8=
EXTT9=
EXTT10=
EXTT11=
EXTT12=
EXTT13=
EXTT14=
EXTT15=
EXTT16=
EXTT17=
EXTT18=
EXTT19=
EXTT20=
EXTT21=
EXTT22=
EXTT23=
PLAYORDER=
